<svg width="108" height="38" viewBox="0 0 108 38" fill="none" xmlns="http://www.w3.org/2000/svg">
<g clip-path="url(#clip0_105_2259)">
<path d="M35.8764 9.00391L32.6923 21.7091C32.405 22.7607 31.7693 23.6825 30.8899 24.3226C30.0627 25.0168 29.0242 25.4068 27.9461 25.4282L32.0414 9.00391H26.9348L26.4141 11.4967L22.3589 27.911H27.3654C29.9094 27.8575 32.3529 26.9034 34.2643 25.2172C36.3085 23.6253 37.7698 21.3985 38.4197 18.8846L40.2621 11.4967L40.8829 9.00391H35.8764Z" fill="#E50539"/>
<path d="M49.6143 1.24423C49.4165 0.998699 49.1638 0.803404 48.8768 0.674174C48.5897 0.544945 48.2764 0.485418 47.9622 0.500415C47.2585 0.505296 46.5813 0.770077 46.0597 1.24423C45.5258 1.69888 45.1708 2.32967 45.0584 3.02337C44.9413 3.56415 45.0405 4.12946 45.3345 4.59758C45.6285 5.0657 46.0939 5.39918 46.6305 5.52622C46.7939 5.56823 46.9627 5.58517 47.1311 5.57648C47.8451 5.57906 48.5343 5.31378 49.0636 4.83266C49.6016 4.3645 49.9565 3.71973 50.0649 3.01332C50.1281 2.70185 50.1204 2.38007 50.0424 2.07201C49.9643 1.76394 49.818 1.47754 49.6143 1.23418M44.9683 23.5488C44.9758 23.4863 44.9927 23.4253 45.0184 23.3678V23.2171L48.613 8.99403H40.4024L39.7716 11.4868H43.0558L40.0519 23.2171C40.0029 23.3639 39.9693 23.5155 39.9518 23.6694C39.823 24.2234 39.8482 24.8024 40.0248 25.343C40.2014 25.8836 40.5225 26.3652 40.9531 26.7351C42.0572 27.5643 43.423 27.9642 44.7981 27.8609H45.539L46.1699 25.3782C45.1686 25.2274 44.768 24.6243 44.9483 23.5588M58.616 22.5537C58.4105 23.3527 57.9454 24.0601 57.2943 24.564C56.6854 25.0779 55.9169 25.3623 55.1215 25.3681C53.6896 25.3681 53.1189 24.6846 53.3191 23.2975V23.1065C53.3248 23.0329 53.3248 22.959 53.3191 22.8854L55.6922 13.3363C56.0226 12.1 56.6935 11.4868 57.6948 11.4868H61.2494L58.616 22.5537ZM63.222 23.9609L63.272 23.8101V23.6694L66.9969 9.00408H58.4458C56.6774 9.01612 54.9524 9.55486 53.4893 10.552C52.0848 11.3868 51.0608 12.7394 50.6357 14.3214L48.563 22.614C48.5119 22.7706 48.4783 22.9324 48.4628 23.0964C48.3345 23.7234 48.3786 24.3737 48.5903 24.9775C48.8019 25.5813 49.1732 26.1159 49.6644 26.524C50.8099 27.4649 52.2611 27.9481 53.7397 27.881H54.5107C56.0012 27.8699 57.4404 27.3326 58.5759 26.3632C59.1968 27.3684 60.3783 27.881 62.1005 27.881H63.8428L64.4636 25.3983C63.5123 25.338 63.0818 24.8856 63.242 24.0111L63.222 23.9609ZM87.2531 13.8188L87.193 14.2209L85.1704 22.614C85.0168 23.3874 84.6489 24.1016 84.109 24.6746C83.9105 24.8917 83.6712 25.0674 83.4048 25.1916C83.1385 25.3158 82.8504 25.386 82.557 25.3983C82.3241 25.4061 82.0938 25.3468 81.8933 25.2275C81.6928 25.1081 81.5305 24.9337 81.4256 24.7248C81.272 24.4339 81.1778 24.1151 81.1485 23.7871C81.1193 23.4592 81.1556 23.1287 81.2553 22.815L81.3054 22.614L83.3681 14.2912C83.5234 13.5456 83.8684 12.853 84.3694 12.2809C84.567 12.0466 84.8122 11.8574 85.0884 11.7256C85.3647 11.5939 85.6657 11.5228 85.9715 11.517C86.1964 11.5065 86.4198 11.5582 86.6175 11.6663C86.8152 11.7744 86.9797 11.9348 87.0929 12.1301C87.3627 12.6641 87.4337 13.2772 87.2932 13.859M91.1181 10.3711C89.9964 9.43667 88.5693 8.95316 87.1129 9.01413H86.3319C84.5469 8.99893 82.8 9.53205 81.3254 10.542C79.9475 11.3857 78.9441 12.7275 78.5218 14.2912L76.329 22.614C76.2795 22.7723 76.2394 22.9334 76.2088 23.0964C76.0767 23.7274 76.1198 24.3827 76.3334 24.9907C76.5471 25.5987 76.9231 26.1361 77.4204 26.5442C78.5812 27.4764 80.0408 27.9518 81.5257 27.881H82.2767C84.0624 27.8907 85.8086 27.3543 87.2832 26.3431C88.6649 25.5061 89.6779 24.173 90.1168 22.614L92.2196 14.2912L92.2896 13.8088C92.4211 13.183 92.3817 12.5331 92.1754 11.928C91.9692 11.3228 91.6039 10.7849 91.1181 10.3711ZM106.338 9.00408C104.48 8.95672 102.658 9.52162 101.151 10.6123L101.522 9.00408H96.5952L91.8591 27.871H96.8656L99.3889 17.5882C99.7491 16.2705 100.411 15.0555 101.321 14.0399C102.184 13.0059 103.303 12.2188 104.566 11.7582L103.965 14.2108H106.668L108 9.04429L106.338 9.00408ZM12.6764 14.5727V14.5124L14.9594 5.52622C15.1159 4.82652 15.4872 4.19372 16.0208 3.71693C16.5105 3.25837 17.1534 3.00023 17.8231 2.99322C18.088 2.97298 18.3536 3.02045 18.5953 3.13119C18.8369 3.24193 19.0466 3.41232 19.2049 3.62647C19.3585 3.85744 19.4643 4.11707 19.5159 4.3899C19.5675 4.66274 19.5639 4.94321 19.5053 5.21462L19.4452 5.52622L17.1623 14.432V14.5727H12.6764ZM23.0299 1.90764C21.7163 0.914149 20.0965 0.416018 18.4539 0.500415C16.4907 0.469098 14.5617 1.01789 12.9067 2.07852C11.3842 3.01883 10.2882 4.51948 9.85279 6.25999L7.85019 14.4621H3.20417C2.78255 14.4621 2.36508 14.5456 1.97568 14.7079C1.58628 14.8702 1.23261 15.108 0.934943 15.4078C0.637279 15.7075 0.401471 16.0633 0.241037 16.4547C0.0806036 16.8461 -0.00130191 17.2654 1.56467e-05 17.6887H7.0091L4.43577 27.871H9.35214L11.9054 17.6987H16.3813L14.7992 24.0111C14.7449 24.1681 14.7047 24.3295 14.679 24.4936C14.5715 24.9291 14.5729 25.3846 14.6829 25.8195C14.793 26.2544 15.0083 26.6552 15.3099 26.9864C15.6803 27.3053 16.1098 27.5476 16.5737 27.6994C17.0377 27.8512 17.5269 27.9095 18.0134 27.871H20.016L20.6468 25.3782C19.9359 25.3782 19.6455 24.9459 19.7556 24.2323L24.2615 6.25999V5.95844L24.3316 5.65689C24.4836 4.97226 24.4423 4.25863 24.2123 3.59627C23.9824 2.93391 23.5729 2.34911 23.0299 1.90764ZM76.1988 9.00408L77.3202 4.62158H72.3138L71.2724 9.00408H68.8392L68.2084 11.4969H70.6416L67.6377 23.2573L67.5676 23.5287C67.5586 23.6155 67.5586 23.7031 67.5676 23.79C67.4322 24.3134 67.4271 24.8623 67.5528 25.3882C67.6786 25.914 67.9312 26.4008 68.2885 26.8055C68.7101 27.1978 69.2079 27.4986 69.7506 27.6888C70.2934 27.8791 70.8694 27.9548 71.4426 27.9112H73.1849L73.8257 25.3782C72.8244 25.2777 72.3738 24.6947 72.5541 23.6292C72.5603 23.5665 72.5773 23.5053 72.6041 23.4483V23.2975L75.608 11.527H77.7208L78.3516 9.03424H76.1988V9.00408Z" fill="#E50539"/>
<path d="M66.0857 35.5307L67.1671 35.6312C67.1399 35.8209 67.1605 36.0145 67.2271 36.1941C67.2944 36.3217 67.4043 36.4213 67.5375 36.4755C67.7722 36.5724 68.025 36.617 68.2785 36.6062C68.539 36.6286 68.8012 36.5954 69.048 36.5088C69.2948 36.4222 69.5205 36.2841 69.7104 36.1036C70.0063 35.6523 70.2104 35.1468 70.3111 34.616L70.4413 34.1034C70.2076 34.3607 69.9253 34.5688 69.6107 34.7155C69.2961 34.8622 68.9555 34.9445 68.6089 34.9577C68.3129 34.9637 68.0193 34.9036 67.7492 34.782C67.4791 34.6603 67.2393 34.48 67.0469 34.2541C66.8294 33.9713 66.6696 33.6481 66.5768 33.3031C66.4841 32.9581 66.46 32.5981 66.5062 32.2438C66.5486 31.5826 66.7413 30.9399 67.0693 30.365C67.3973 29.7901 67.852 29.2981 68.3986 28.9268C68.8362 28.6381 69.347 28.4811 69.8706 28.4744C70.2631 28.4646 70.65 28.5708 70.9829 28.7799C71.3158 28.989 71.5801 29.2918 71.743 29.6505L72.0133 28.6453H73.0146L71.4126 34.7668C71.2877 35.3217 71.0783 35.854 70.7917 36.3449C70.5385 36.718 70.1936 37.0192 69.7904 37.2194C69.3492 37.4285 68.8666 37.535 68.3786 37.531C67.9364 37.54 67.496 37.472 67.0769 37.3299C66.7471 37.2137 66.4676 36.9864 66.2859 36.6866C66.1125 36.4298 66.0313 36.1214 66.0556 35.8121C66.0593 35.7177 66.0693 35.6237 66.0857 35.5307ZM67.6076 32.1533C67.5747 32.49 67.5984 32.8298 67.6777 33.1585C67.7576 33.4366 67.9222 33.6826 68.1483 33.8621C68.3556 34.02 68.609 34.1048 68.8693 34.1034C69.2728 34.0804 69.6586 33.929 69.9707 33.6711C70.369 33.374 70.6803 32.9747 70.8719 32.5152C71.1044 32.0475 71.2438 31.5388 71.2824 31.0175C71.3263 30.5694 71.1933 30.1218 70.9119 29.7711C70.7867 29.6278 70.6329 29.5125 70.4603 29.4328C70.2878 29.3532 70.1005 29.3109 69.9106 29.3087C69.6366 29.3109 69.3677 29.3836 69.1296 29.5198C68.8518 29.6919 68.6075 29.9133 68.4087 30.1732C68.1759 30.4754 67.9964 30.8153 67.878 31.1783C67.7523 31.4909 67.6681 31.8187 67.6277 32.1533H67.6076ZM77.2802 34.1737C76.9425 34.4619 76.5647 34.6989 76.1587 34.8773C75.8072 35.0268 75.4289 35.102 75.0473 35.0985C74.7927 35.1126 74.538 35.0745 74.2987 34.9863C74.0593 34.8982 73.8405 34.7619 73.6555 34.5858C73.4861 34.4124 73.3569 34.2035 73.2773 33.9742C73.1977 33.7448 73.1695 33.5006 73.1949 33.259C73.2052 32.9267 73.3056 32.6035 73.4852 32.3242C73.6532 32.0527 73.8831 31.8253 74.1561 31.6608C74.4664 31.4848 74.8055 31.3657 75.1574 31.309C75.6181 31.2384 76.0832 31.2015 76.5492 31.1984C77.0448 31.1991 77.5377 31.1246 78.0111 30.9773C78.0983 30.7414 78.1522 30.4944 78.1713 30.2435C78.1863 30.1322 78.172 30.0189 78.1299 29.9149C78.0877 29.8108 78.0192 29.7197 77.931 29.6505C77.615 29.4307 77.2328 29.3277 76.8496 29.359C76.4553 29.3431 76.0652 29.4445 75.7281 29.6505C75.424 29.8653 75.1904 30.1663 75.0573 30.5149L73.9659 30.4144C74.1956 29.8322 74.5886 29.3294 75.0973 28.967C75.6525 28.6222 76.2973 28.4507 76.9497 28.4744C77.6066 28.4338 78.2564 28.6299 78.7821 29.0273C78.943 29.1575 79.0693 29.3257 79.1497 29.5169C79.2301 29.7081 79.262 29.9163 79.2427 30.1229C79.221 30.5221 79.1504 30.9171 79.0324 31.299L78.6019 32.8771C78.4841 33.2736 78.4069 33.6811 78.3716 34.0933C78.3704 34.3839 78.4006 34.6737 78.4617 34.9577H77.3603C77.3035 34.7004 77.2767 34.4373 77.2802 34.1737ZM77.8008 31.7412C77.6424 31.8046 77.478 31.8517 77.3102 31.8819C77.13 31.8819 76.8396 31.9523 76.4391 31.9825C75.9865 32.0129 75.5375 32.0835 75.0973 32.1935C74.8595 32.2653 74.6496 32.4093 74.4966 32.6057C74.3562 32.7838 74.2755 33.0019 74.2663 33.2289C74.2514 33.3654 74.2681 33.5034 74.315 33.6324C74.3619 33.7614 74.4377 33.8778 74.5366 33.9727C74.7812 34.1814 75.0974 34.286 75.4177 34.2642C75.7697 34.2556 76.1138 34.1588 76.419 33.9827C76.7568 33.7942 77.0398 33.5205 77.2401 33.1887C77.5033 32.7396 77.6927 32.2508 77.8008 31.7412ZM79.7434 34.9577L81.3955 28.6453H82.4769L82.1965 29.6505C82.5219 29.2806 82.9039 28.9651 83.328 28.7157C83.637 28.5528 83.9803 28.4666 84.3293 28.4644C84.6814 28.4302 85.0329 28.5348 85.3095 28.7562C85.5861 28.9776 85.766 29.2983 85.8112 29.6505C86.1061 29.2883 86.4662 28.9848 86.8726 28.7559C87.2184 28.5623 87.6082 28.4619 88.0041 28.4644C88.2141 28.4459 88.4257 28.4693 88.6267 28.5331C88.8278 28.5969 89.0143 28.7 89.1756 28.8363C89.3043 28.9775 89.4013 29.1448 89.46 29.3269C89.5187 29.509 89.5378 29.7016 89.516 29.8917C89.4853 30.2322 89.4216 30.5688 89.3258 30.8969L88.2644 34.9778H87.183L88.2744 30.7863C88.344 30.5462 88.3942 30.3008 88.4246 30.0526C88.4333 29.963 88.4227 29.8726 88.3933 29.7876C88.3639 29.7025 88.3165 29.6249 88.2544 29.56C88.1038 29.4326 87.9103 29.3679 87.7137 29.3791C87.3601 29.3858 87.0147 29.4864 86.7124 29.6706C86.3798 29.8574 86.0979 30.1231 85.8913 30.4446C85.6379 30.9019 85.4492 31.3925 85.3306 31.902L84.5296 34.9778H83.4582L84.5696 30.6556C84.6302 30.4519 84.6737 30.2435 84.6998 30.0324C84.708 29.9414 84.6971 29.8496 84.6678 29.763C84.6385 29.6764 84.5914 29.597 84.5296 29.5299C84.4659 29.465 84.3892 29.4144 84.3047 29.3815C84.2201 29.3486 84.1295 29.334 84.0389 29.3389C83.7081 29.366 83.3886 29.4729 83.1077 29.6505C82.7635 29.8537 82.4692 30.1319 82.2466 30.4647C81.9766 30.9316 81.7775 31.4364 81.6558 31.9624L80.8748 34.9778L79.7434 34.9577ZM94.6627 32.7966L95.664 32.9072C95.4344 33.4976 95.0462 34.0126 94.5425 34.3949C93.9825 34.8661 93.2705 35.1163 92.5399 35.0985C92.0949 35.1081 91.6556 34.9969 91.2683 34.7768C90.8938 34.5611 90.5988 34.2297 90.4272 33.832C90.2379 33.385 90.1589 32.8988 90.1969 32.4147C90.2363 31.7091 90.4349 31.0216 90.7777 30.4044C91.0756 29.8079 91.5333 29.3067 92.0994 28.9569C92.6013 28.6444 93.1809 28.4807 93.7715 28.4845C94.0986 28.4654 94.4259 28.5186 94.7304 28.6401C95.0349 28.7617 95.3091 28.9487 95.5338 29.1881C95.7568 29.4509 95.9234 29.757 96.0234 30.0873C96.1233 30.4176 96.1543 30.7651 96.1146 31.108C96.0951 31.4291 96.0516 31.7483 95.9844 32.0629H91.3985C91.3854 32.1731 91.3854 32.2844 91.3985 32.3946C91.341 32.8753 91.4583 33.3607 91.7289 33.7616C91.8475 33.9127 92.0001 34.0333 92.1741 34.1137C92.3482 34.1941 92.5388 34.2319 92.7302 34.224C93.1283 34.2169 93.5152 34.091 93.8416 33.8621C94.204 33.5858 94.4873 33.2182 94.6627 32.7966ZM91.6087 31.2286H95.1233V30.9874C95.1531 30.7673 95.1383 30.5434 95.0798 30.3293C95.0213 30.1151 94.9203 29.915 94.7829 29.741C94.657 29.6005 94.5023 29.4892 94.3294 29.4146C94.1566 29.34 93.9697 29.3038 93.7816 29.3087C93.3077 29.3111 92.85 29.482 92.4899 29.7912C92.0696 30.1795 91.7647 30.677 91.6087 31.2286Z" fill="#FDFDFD"/>
</g>
<defs>
<clipPath id="clip0_105_2259">
<rect width="108" height="37" fill="white" transform="translate(0 0.5)"/>
</clipPath>
</defs>
</svg>
