<?xml version="1.0" standalone="no"?>
<!DOCTYPE svg PUBLIC "-//W3C//DTD SVG 20010904//EN"
 "http://www.w3.org/TR/2001/REC-SVG-20010904/DTD/svg10.dtd">
<svg version="1.0" xmlns="http://www.w3.org/2000/svg"
 width="240.000000pt" height="240.000000pt" viewBox="0 0 240.000000 240.000000"
 preserveAspectRatio="xMidYMid meet">

<g transform="translate(0.000000,240.000000) scale(0.100000,-0.100000)"
fill="#000000" stroke="none">
<path d="M515 1486 l7 -73 -29 -6 c-17 -3 -65 -9 -107 -13 -42 -4 -79 -10 -81
-14 -4 -7 9 -191 21 -277 l5 -43 150 0 149 0 0 250 0 250 -61 0 -61 0 7 -74z
m19 -183 c2 -10 7 -48 11 -85 l7 -68 -70 0 -70 0 -12 71 c-7 39 -10 72 -9 74
6 5 91 23 116 24 13 1 24 -6 27 -16z"/>
<path d="M1080 1485 c0 -73 -1 -75 -24 -75 -18 0 -27 -8 -35 -31 -16 -45 -15
-47 22 -51 l32 -3 3 -132 3 -133 95 0 96 0 -7 48 c-4 26 -10 50 -14 54 -3 4
-23 2 -44 -4 -20 -6 -39 -9 -40 -7 -2 2 -1 42 2 89 l6 85 33 3 c29 3 33 6 28
25 -3 12 -6 30 -6 40 0 11 -8 17 -25 17 -24 0 -25 2 -25 75 l0 75 -50 0 -50 0
0 -75z"/>
<path d="M1900 1485 c0 -67 -2 -75 -19 -75 -12 0 -23 -11 -30 -31 -16 -45 -14
-49 18 -49 37 0 41 -14 41 -157 l0 -113 96 0 c86 0 95 2 90 18 -3 9 -8 34 -12
55 -5 28 -10 37 -21 33 -8 -4 -26 -9 -39 -12 l-24 -6 0 91 0 91 31 0 c24 0 30
3 25 16 -3 9 -6 27 -6 40 0 19 -5 24 -25 24 -24 0 -25 2 -25 75 l0 75 -50 0
-50 0 0 -75z"/>
<path d="M670 1370 c0 -39 1 -40 33 -40 28 0 36 5 50 35 9 20 17 38 17 40 0 3
-22 5 -50 5 l-50 0 0 -40z"/>
<path d="M799 1347 c-17 -40 -24 -74 -22 -94 5 -31 7 -32 82 -45 71 -13 76
-15 79 -41 4 -35 -12 -41 -84 -28 -31 6 -59 10 -60 8 -2 -1 0 -21 3 -45 l6
-42 107 0 107 0 7 92 c4 50 3 94 -1 98 -4 4 -36 13 -69 20 -74 15 -87 22 -78
43 4 12 18 17 49 17 39 0 44 3 54 31 6 18 11 36 11 40 0 5 -37 9 -82 9 l-83 0
-26 -63z"/>
<path d="M1260 1406 c0 -2 11 -76 25 -163 14 -87 25 -164 25 -170 0 -9 19 -13
61 -13 53 0 60 2 55 18 -9 28 -46 166 -46 169 0 2 25 19 55 38 l54 35 -18 43
c-24 56 -49 59 -80 10 -26 -40 -26 -40 -45 20 -4 12 -16 17 -46 17 -22 0 -40
-2 -40 -4z"/>
<path d="M1510 1403 c0 -4 5 -22 12 -40 10 -28 17 -33 45 -33 32 0 33 1 33 40
l0 40 -45 0 c-25 0 -45 -3 -45 -7z"/>
<path d="M1640 1235 l0 -175 119 0 118 0 -10 49 -9 49 -58 -5 c-65 -6 -63 -8
-75 77 -4 25 -9 53 -11 62 -4 14 3 19 37 24 35 6 43 12 55 40 8 18 14 38 14
44 0 6 -35 10 -90 10 l-90 0 0 -175z"/>
<path d="M670 1176 l0 -116 45 0 c52 0 52 -3 32 140 l-12 85 -32 3 -33 3 0
-115z"/>
<path d="M1525 1258 c-8 -47 -25 -171 -25 -185 0 -9 16 -13 45 -13 l45 0 0
105 c0 58 1 108 3 113 1 4 -12 8 -30 10 -29 3 -32 0 -38 -30z"/>
<path d="M640 885 c0 -54 1 -55 28 -55 41 0 67 22 55 46 -6 10 -8 25 -5 33 6
17 -16 31 -50 31 -27 0 -28 -2 -28 -55z m55 -15 c3 -5 -1 -10 -9 -10 -9 0 -16
5 -16 10 0 6 4 10 9 10 6 0 13 -4 16 -10z"/>
<path d="M769 911 c12 -16 21 -41 21 -55 0 -16 6 -26 15 -26 9 0 15 9 15 21 0
12 9 37 21 55 22 37 10 47 -23 18 -16 -16 -18 -16 -24 0 -3 9 -15 16 -26 16
-19 0 -19 -1 1 -29z"/>
<path d="M970 925 c0 -8 7 -15 15 -15 19 0 19 -9 0 -34 -25 -34 -18 -46 25
-46 29 0 40 4 40 15 0 8 -9 15 -21 15 l-20 0 20 29 c30 42 26 51 -19 51 -29 0
-40 -4 -40 -15z"/>
<path d="M1107 922 c-22 -24 -21 -55 1 -75 39 -36 92 -10 92 43 0 47 -61 68
-93 32z m61 -35 c4 -21 -27 -35 -38 -17 -12 19 0 42 19 38 9 -2 17 -11 19 -21z"/>
<path d="M1250 885 c0 -54 14 -72 28 -37 4 9 14 17 22 17 8 0 18 -8 22 -17 14
-35 28 -17 28 37 0 59 -10 68 -34 33 l-16 -22 -16 22 c-24 35 -34 26 -34 -33z"/>
<path d="M1416 907 c-27 -65 -28 -77 -12 -77 9 0 16 5 16 10 0 6 9 10 20 10
11 0 20 -4 20 -10 0 -5 7 -10 15 -10 8 0 15 4 15 9 0 20 -40 101 -50 101 -5 0
-16 -15 -24 -33z m34 -27 c0 -5 -5 -10 -11 -10 -5 0 -7 5 -4 10 3 6 8 10 11
10 2 0 4 -4 4 -10z"/>
<path d="M1517 933 c-13 -12 -7 -23 13 -23 17 0 20 -7 20 -40 0 -29 4 -40 15
-40 11 0 15 11 15 40 0 29 4 40 15 40 8 0 15 7 15 15 0 11 -11 15 -43 15 -24
0 -47 -3 -50 -7z"/>
<path d="M1657 922 c-21 -23 -21 -41 -1 -70 30 -44 94 -18 94 38 0 47 -61 68
-93 32z m61 -35 c4 -21 -27 -35 -38 -17 -12 19 0 42 19 38 9 -2 17 -11 19 -21z"/>
</g>
</svg>
