<?xml version="1.0" encoding="UTF-8"?>
<svg id="Layer_1" data-name="Layer 1" xmlns="http://www.w3.org/2000/svg" viewBox="0 0 591 78.9">
  <defs>
    <style>
      .cls-1 {
        fill: #0e489b;
      }

      .cls-2 {
        fill: #f37b20;
      }
    </style>
  </defs>
  <g>
    <path class="cls-2" d="m287.45.4c-.3,3.11-.59,6.22-.91,9.33-.64,6.19-1.3,12.37-1.95,18.56-.67,6.39-1.34,12.77-2.01,19.23h-14.61c.1-1.04.18-2.08.29-3.11.77-6.64-4.99-13.26-13.55-10.29-6.4,2.22-9.84,10.01-7.41,16.35,1.68,4.38,5.95,6.77,10.74,6,.23-.04.45-.07.8-.11-.41,3.89-.81,7.69-1.22,11.56-2.18.77-4.42,1.08-6.69,1.02-11.2-.34-17.46-8.77-18.6-17.73-1.04-8.17.93-15.54,6.35-21.82,4.51-5.22,10.25-8.16,17.2-8.28,5.68-.1,10.57,1.7,13.74,6.82.05.08.14.13.33.31.18-1.65.37-3.19.53-4.72.77-7.44,1.54-14.87,2.32-22.31.03-.27.11-.53.17-.79h14.5Z"/>
    <path class="cls-2" d="m22.66.4c-.23,2.57-.43,5.14-.7,7.71-.78,7.54-1.58,15.07-2.38,22.61-.78,7.4-1.58,14.8-2.36,22.2-.52,4.9-1.03,9.8-1.56,14.86H0v-.41c.06-.18.17-.36.19-.54,1.04-9.89,2.07-19.79,3.12-29.69,1.15-10.91,2.3-21.82,3.47-32.72.14-1.34.38-2.67.57-4.01h15.31Z"/>
    <path class="cls-2" d="m270.91,71.86c-1.91-.56-3.67-1.33-4.97-2.95-3.36-4.18-2.08-10.67,2.72-13.74,3.74-2.39,8.55-2.19,11.47.47,3.44,3.15,3.58,8.74.31,12.51-1.54,1.77-3.45,2.93-5.73,3.49-.19.05-.36.14-.54.21h-3.27Z"/>
    <path class="cls-2" d="m139.52,48.88c-1.44,3.43-3.37,6.45-5.85,9.1-6.79,7.28-15.28,10.73-25.15,11.01-5.67.16-11.12-.79-16.15-3.51-8.12-4.39-12.61-11.38-14.13-20.33-2.45-14.45,4.74-29.18,17.58-36.26,5.34-2.95,11.1-4.36,17.18-4.51,5.33-.13,10.52.56,15.37,2.9,8.12,3.91,12.44,10.53,13.72,19.41h-15c-.85-1.52-1.52-3.15-2.55-4.49-2.73-3.56-6.61-4.81-10.94-4.95-11.73-.39-19.63,8.36-20.94,18.28-.52,3.97-.16,7.81,1.56,11.45,3.22,6.83,9.82,9.8,16.97,9.06,5.05-.52,9.18-2.77,12.29-6.82.18-.23.54-.44.82-.44,4.97-.02,9.93-.01,14.9,0,.06,0,.13.04.32.11Z"/>
    <path class="cls-2" d="m194.4,48.55c-1.26,4.18,1.65,8.89,6,9.77,2.4.49,4.81.4,7.14-.44,1.94-.7,3.35-2.01,4.37-3.79.18-.31.62-.68.95-.68,4.39-.04,8.78-.03,13.16-.02.1,0,.19.04.47.1-.41,1.06-.74,2.12-1.22,3.1-2.43,4.99-6.43,8.29-11.49,10.31-6.19,2.46-12.6,2.85-19.02,1.22-7.74-1.96-12.6-6.94-14.12-14.82-1.7-8.85.02-16.99,6.02-23.92,4.17-4.82,9.62-7.35,15.88-8.13,5.21-.65,10.34-.28,15.15,2.01,6.48,3.09,9.9,8.35,10.57,15.45.28,3.02-.19,5.95-.96,8.87-.21.79-.53.99-1.31.99-10.14-.03-20.27-.02-30.41-.02h-1.18Zm19.66-8.41c.63-3.77-1-7.16-4.09-8.59-4.13-1.92-9.73-.65-12.6,2.89-1.33,1.64-2.05,3.53-2.22,5.7h18.9Z"/>
    <path class="cls-2" d="m37.89,67.73h-14.5c1.6-15.14,3.2-30.24,4.8-45.4h14.44c-.2,1.97-.4,3.94-.63,6.18.35-.42.54-.64.72-.86,3.46-4.35,8.13-6.2,13.52-6.51,3.87-.22,7.64.19,10.93,2.46,3.79,2.63,5.13,6.54,5.05,10.91-.07,3.97-.46,7.94-.84,11.89-.67,6.9-1.44,13.79-2.17,20.69-.02.2-.05.39-.08.63h-14.45c.09-1.08.17-2.14.28-3.2.72-6.76,1.52-13.51,2.12-20.28.18-2.03.04-4.16-.36-6.16-.6-2.92-2.74-4.48-5.69-4.63-4.56-.23-8.01,1.94-9.53,6.42-.79,2.32-1.16,4.81-1.45,7.26-.79,6.82-1.44,13.65-2.16,20.59Z"/>
    <path class="cls-2" d="m157.02,67.73h-14.5c1.61-15.18,3.21-30.3,4.81-45.45h14.44c-.23,2.26-.47,4.5-.73,7.04,2.41-3.37,5.39-5.52,8.98-6.83,3.59-1.31,7.27-1.22,11.15-.65-.83,4.48-1.66,8.94-2.51,13.46-1.22-.18-2.38-.44-3.55-.5-5.18-.29-9.84.79-13.03,5.34-1.6,2.27-2.48,4.86-2.83,7.57-.7,5.5-1.25,11.01-1.86,16.52-.13,1.15-.25,2.29-.38,3.49Z"/>
  </g>
  <g>
    <path class="cls-1" d="m322.13,29.28l-4.6,36.44-2.42,8.57c-.47,1.46-1.17,2.59-2.09,3.4-.92.8-2.23,1.21-3.94,1.21h-4.7l6.22-49.62-3.75-.64c-.73-.15-1.33-.45-1.8-.89-.47-.44-.65-1.09-.52-1.94l.57-4.56h6.55l.43-3.47c.35-2.68,1.08-5.08,2.21-7.21,1.12-2.13,2.55-3.94,4.27-5.43,1.72-1.49,3.71-2.63,5.96-3.42,2.25-.79,4.67-1.19,7.26-1.19,2.02,0,3.89.29,5.6.87l-1.04,5.84c-.16.7-.6,1.12-1.33,1.25-.73.14-1.55.21-2.47.21-1.27,0-2.43.17-3.49.5-1.06.33-1.99.87-2.8,1.62-.81.75-1.47,1.72-1.99,2.92-.52,1.2-.89,2.67-1.11,4.4l-.38,3.1h10.92l-1.09,8.03h-10.44Z"/>
    <path class="cls-1" d="m353.83,20.84l-5.84,46.79h-11.53l5.84-46.79h11.53Zm2.99-13.64c0,.97-.21,1.89-.64,2.74-.43.85-.99,1.6-1.68,2.23-.7.64-1.49,1.15-2.37,1.53-.89.38-1.8.57-2.75.57s-1.8-.19-2.66-.57c-.85-.38-1.61-.89-2.28-1.53-.66-.64-1.19-1.38-1.59-2.23-.4-.85-.59-1.76-.59-2.74s.21-1.9.62-2.78c.41-.88.95-1.65,1.61-2.3.66-.65,1.43-1.17,2.3-1.55.87-.38,1.76-.57,2.68-.57s1.87.19,2.75.57c.89.38,1.67.89,2.35,1.53.68.64,1.23,1.4,1.64,2.28.41.88.62,1.82.62,2.83Z"/>
    <path class="cls-1" d="m372.16,30.51c2.47-3.5,5.2-6.1,8.21-7.82,3.01-1.72,6.11-2.58,9.3-2.58,2.02,0,3.84.4,5.46,1.19,1.61.79,2.94,1.94,3.99,3.44,1.04,1.5,1.78,3.36,2.21,5.56.43,2.2.45,4.72.07,7.55l-3.65,29.78h-11.72l3.65-29.78c.41-3.04.25-5.22-.47-6.54-.73-1.32-2.06-1.98-3.99-1.98-1.3,0-2.63.36-3.99,1.07-1.36.71-2.67,1.73-3.94,3.06-1.27,1.32-2.43,2.9-3.49,4.74-1.06,1.84-1.92,3.9-2.59,6.18l-2.71,23.26h-11.72l5.84-46.84h5.93c1.23,0,2.19.29,2.87.87.68.58,1.02,1.5,1.02,2.78l-.28,6.07Z"/>
    <path class="cls-1" d="m437.14,57.87c-2.15,3.19-4.58,5.73-7.29,7.62-2.71,1.89-5.66,2.83-8.85,2.83-1.84,0-3.55-.35-5.15-1.05s-2.99-1.74-4.18-3.12c-1.19-1.38-2.12-3.12-2.8-5.2-.68-2.08-1.02-4.52-1.02-7.32s.36-5.52,1.09-8.16c.73-2.65,1.76-5.13,3.11-7.46,1.34-2.33,2.97-4.46,4.87-6.41,1.9-1.95,4.03-3.62,6.38-5.02,2.36-1.4,4.9-2.49,7.64-3.26,2.74-.78,5.62-1.16,8.66-1.16,2.18,0,4.37.15,6.57.46,2.2.3,4.34.85,6.43,1.64l-5.84,45.38h-6.22c-1.49,0-2.49-.36-3.01-1.07-.52-.71-.78-1.6-.78-2.67l.38-6.02Zm3.23-29.64c-.44-.03-.86-.05-1.26-.07-.4-.01-.78-.02-1.16-.02-2.63,0-5.06.58-7.31,1.73-2.25,1.16-4.18,2.71-5.81,4.67-1.63,1.96-2.91,4.24-3.84,6.84-.93,2.6-1.4,5.34-1.4,8.23,0,3.28.54,5.69,1.61,7.21,1.08,1.52,2.55,2.28,4.41,2.28,1.3,0,2.57-.43,3.82-1.3,1.25-.87,2.44-2.05,3.56-3.56,1.12-1.5,2.15-3.28,3.08-5.31.93-2.04,1.75-4.23,2.44-6.57l1.85-14.14Z"/>
    <path class="cls-1" d="m472.97,30.51c2.47-3.5,5.2-6.1,8.21-7.82,3.01-1.72,6.11-2.58,9.3-2.58,2.02,0,3.84.4,5.46,1.19,1.61.79,2.94,1.94,3.99,3.44,1.04,1.5,1.78,3.36,2.21,5.56.43,2.2.45,4.72.07,7.55l-3.65,29.78h-11.72l3.65-29.78c.41-3.04.25-5.22-.47-6.54-.73-1.32-2.06-1.98-3.99-1.98-1.3,0-2.63.36-3.99,1.07-1.36.71-2.67,1.73-3.94,3.06-1.27,1.32-2.43,2.9-3.49,4.74-1.06,1.84-1.92,3.9-2.59,6.18l-2.71,23.26h-11.72l5.84-46.84h5.93c1.23,0,2.19.29,2.87.87.68.58,1.02,1.5,1.02,2.78l-.28,6.07Z"/>
    <path class="cls-1" d="m540.52,63.62c-1.47,1.16-2.97,2.08-4.49,2.78-1.52.7-3.11,1.19-4.77,1.48-1.66.29-3.49.43-5.48.43-2.82,0-5.34-.46-7.57-1.39-2.23-.93-4.12-2.24-5.67-3.94-1.55-1.7-2.74-3.75-3.56-6.16-.82-2.4-1.23-5.08-1.23-8.03,0-2.52.28-4.99.85-7.39.57-2.4,1.39-4.67,2.47-6.8,1.08-2.13,2.37-4.07,3.89-5.84,1.52-1.76,3.23-3.28,5.13-4.56,1.9-1.28,3.96-2.27,6.19-2.99,2.23-.71,4.6-1.07,7.1-1.07,3.23,0,5.97.55,8.23,1.64,2.26,1.09,4.26,2.74,6,4.93l-3.75,4.29c-.25.27-.57.52-.95.75-.38.23-.79.34-1.23.34-.54,0-1.02-.16-1.45-.48-.43-.32-.93-.66-1.52-1.03-.59-.36-1.31-.71-2.18-1.03-.87-.32-2-.48-3.39-.48-1.8,0-3.53.47-5.17,1.41-1.65.94-3.1,2.28-4.37,4.01-1.27,1.73-2.27,3.82-3.01,6.25-.74,2.43-1.12,5.12-1.12,8.07,0,3.44.79,6.09,2.37,7.96,1.58,1.87,3.73,2.8,6.45,2.8,1.2,0,2.26-.12,3.18-.36.92-.24,1.73-.54,2.44-.89.71-.35,1.34-.73,1.87-1.14.54-.41,1.04-.79,1.52-1.14.47-.35.93-.65,1.35-.89.43-.24.89-.36,1.4-.36.41,0,.8.1,1.16.3.36.2.69.45.97.75l2.94,3.47c-1.61,1.7-3.16,3.13-4.63,4.29Z"/>
    <path class="cls-1" d="m561.19,48.57c0,7.36,3.24,11.04,9.73,11.04,1.39,0,2.63-.13,3.7-.39,1.07-.26,2.02-.57,2.82-.93.81-.37,1.53-.78,2.18-1.23.65-.46,1.25-.87,1.8-1.23.55-.36,1.1-.68,1.64-.93.54-.26,1.12-.39,1.76-.39.38,0,.75.09,1.11.27.36.18.69.43.97.73l2.99,3.47c-1.68,1.61-3.32,3.01-4.94,4.2-1.61,1.19-3.26,2.16-4.94,2.92-1.68.76-3.45,1.32-5.32,1.69-1.87.36-3.89.55-6.08.55-2.85,0-5.43-.46-7.74-1.39-2.31-.93-4.29-2.23-5.93-3.92-1.65-1.69-2.92-3.72-3.82-6.11-.9-2.39-1.35-5.05-1.35-8,0-2.46.28-4.88.83-7.25.55-2.37,1.35-4.62,2.4-6.75,1.04-2.13,2.33-4.09,3.84-5.88,1.52-1.79,3.23-3.34,5.15-4.65,1.91-1.31,4.02-2.33,6.31-3.06,2.29-.73,4.75-1.09,7.38-1.09s4.75.35,6.67,1.05c1.91.7,3.51,1.6,4.79,2.71,1.28,1.11,2.24,2.35,2.87,3.72.63,1.37.95,2.71.95,4.01,0,2.1-.44,4.01-1.31,5.75-.87,1.73-2.42,3.28-4.65,4.65-2.23,1.37-5.28,2.55-9.14,3.53-3.86.99-8.77,1.77-14.71,2.35v.59Zm13.86-20.52c-1.58,0-3.05.31-4.41.94-1.36.62-2.59,1.5-3.68,2.62-1.09,1.13-2.04,2.47-2.85,4.04-.81,1.57-1.45,3.28-1.92,5.13,3.92-.52,7.08-1.09,9.47-1.71,2.39-.62,4.23-1.29,5.53-2.01,1.3-.71,2.16-1.49,2.59-2.33.43-.84.64-1.71.64-2.62,0-.46-.1-.93-.31-1.41-.21-.49-.52-.92-.95-1.3-.43-.38-.98-.7-1.66-.96-.68-.26-1.5-.39-2.44-.39Z"/>
  </g>
</svg>